# xmcd CD database file
#
# Track frame offsets:
#	150
#	13423
#	26870
#	39783
#	52675
#	65375
#	78763
#	90080
#	101163
#	114160
#	126498
#	136955
#	150810
#	161063
#	174288
#	187235
#	201268
#	210935
#	223783
#	235883
#	247385
#	256320
#	269138
#	280080
#	290683
#
# Disc length: 4054 seconds
#
# Revision: 3
# Processed by: cddbd v1.5.2PL0 Copyright (c) Steve Scherf et al.
# Submitted via: CDex 1.51
#
DISCID=660fd419
DTITLE=Percy Mayfield - Percy Mayfield:  Poet Of The Blues
DYEAR=1950
DGENRE=Blues
TTITLE0=Please Send Me Someone To Love
TTITLE1=Prayin' For Your Return
TTITLE2=Strange Things Happening
TTITLE3=Life Is Suicide
TTITLE4=What A Fool I Was
TTITLE5=Lost Love (Baby, Please)
TTITLE6=Nightless Lover
TTITLE7=Advice (For Men Only)
TTITLE8=Cry Baby
TTITLE9=Lost Mind
TTITLE10=I Dare You, Baby
TTITLE11=Hopeless
TTITLE12=The Hunt Is On
TTITLE13=The River's Invitation
TTITLE14=The Big Question
TTITLE15=Wasted Dream
TTITLE16=Louisiana
TTITLE17=The Bachelor Blues
TTITLE18=Get Way Back
TTITLE19=Memory Pain
TTITLE20=Loose Lips
TTITLE21=You Don't Exist No More
TTITLE22=Nightmare
TTITLE23=Baby, You're Rich
TTITLE24=My Heart Is Cryin'
EXTD=YEAR: 1950
EXTT0=
EXTT1=
EXTT2=
EXTT3=
EXTT4=
EXTT5=
EXTT6=
EXTT7=
EXTT8=
EXTT9=
EXTT10=
EXTT11=
EXTT12=
EXTT13=
EXTT14=
EXTT15=
EXTT16=
EXTT17=
EXTT18=
EXTT19=
EXTT20=
EXTT21=
EXTT22=
EXTT23=
EXTT24=
PLAYORDER=
